<svg width="31" height="31" fill="none" xmlns="http://www.w3.org/2000/svg"><path d="M15.5 0C6.954 0 0 6.952 0 15.499s6.954 15.5 15.5 15.5S31 24.045 31 15.498 24.046 0 15.5 0zm0 29.966c-7.977 0-14.466-6.49-14.466-14.467S7.524 1.032 15.5 1.032c7.977 0 14.466 6.49 14.466 14.467S23.476 29.966 15.5 29.966z" fill="#fff"/><path d="M18.883 6.8h-2.579C13.02 6.765 12.6 8.8 12.6 11v1.599h-1.45a.432.432 0 00-.483.483v2.9a.43.43 0 00.483.484h1.45v7.25a.434.434 0 00.486.483h2.953c.286.032.517-.199.426-.484l.002-7.25h2.416a.43.43 0 00.484-.483v-2.9a.431.431 0 00-.484-.483h-2.42l.004-1.45c.093-.618.094-.517.667-.483h1.729c.134-.03.277-.014.378-.111.1-.098.159-.231.125-.373v-2.9a.43.43 0 00-.483-.483zm-.517 2.845l-1.212-.046c-1.501 0-1.627.815-1.627 1.649l-.004 1.832a.517.517 0 00.516.518H18.4v1.867h-2.359a.518.518 0 00-.517.516v7.251h-1.957v-7.25c0-.285-.194-.516-.48-.516h-1.454V13.6h1.453a.516.516 0 00.366-.151c.096-.098.114-.23.114-.367v-2.083c0-2.167.438-3.2 2.737-3.2h2.062v1.847h.001z" fill="#fff"/></svg>